<svg id="Instagram" xmlns="http://www.w3.org/2000/svg" width="39.412" height="39.412" viewBox="0 0 39.412 39.412">
  <defs>
    <style>
      .cls-1 {
        fill: #007f2d;
      }
    </style>
  </defs>
  <path id="Caminho_3" data-name="Caminho 3" class="cls-1" d="M706.558,79H688.875a10.864,10.864,0,0,0-10.864,10.864v17.683a10.864,10.864,0,0,0,10.864,10.864h17.683a10.864,10.864,0,0,0,10.864-10.864V89.862A10.864,10.864,0,0,0,706.558,79Zm7.68,28.5a7.726,7.726,0,0,1-7.726,7.725H688.921A7.725,7.725,0,0,1,681.2,107.5V89.908a7.724,7.724,0,0,1,7.724-7.724h17.592a7.725,7.725,0,0,1,7.726,7.724Z" transform="translate(-678.011 -78.998)"/>
  <path id="Caminho_4" data-name="Caminho 4" class="cls-1" d="M702.048,89.924a13.112,13.112,0,1,0,13.113,13.112A13.111,13.111,0,0,0,702.048,89.924Zm0,21.665a8.553,8.553,0,1,1,8.553-8.552A8.553,8.553,0,0,1,702.048,111.589Z" transform="translate(-682.343 -83.33)"/>
  <path id="Caminho_5" data-name="Caminho 5" class="cls-1" d="M714.266,88.435a1.648,1.648,0,1,1-1.649-1.648A1.648,1.648,0,0,1,714.266,88.435Z" transform="translate(-681.751 -79.882)"/>
</svg>
