<svg xmlns="http://www.w3.org/2000/svg" width="20.269" height="23.595" viewBox="0 0 20.269 23.595">
  <defs>
    <style>
      .cls-1 {
        fill: #007f2e;
      }

      .cls-2 {
        fill: #4f8b24;
      }
    </style>
  </defs>
  <g id="Grupo_68" data-name="Grupo 68" transform="translate(-189.031 -129.321)">
    <path id="Caminho_8" data-name="Caminho 8" class="cls-1" d="M190.966,138.661,194,140.3l2.976,1.607-.225-2.366a2.95,2.95,0,0,1,.607-2.447l1.52-1.593.121-.127-.731-1.944a2.464,2.464,0,0,0-1.351-1.613l-1.723-.638-4.966-1.84a1.026,1.026,0,0,0-1.194.757.273.273,0,0,0,0,.1l1.012,6.846A2.28,2.28,0,0,0,190.966,138.661Z" transform="translate(0)"/>
    <path id="Caminho_9" data-name="Caminho 9" class="cls-2" d="M209.111,142.492l.225,2.366.264,2.786.611,6.475a1.109,1.109,0,0,0,2.027.616l5.079-7.09,2.408-3.361a2.734,2.734,0,0,0,.141-2.225l-2.509-7.9a.314.314,0,0,0-.057-.107,1.229,1.229,0,0,0-1.683-.187l-4.259,4.464-.121.127-1.52,1.593A2.95,2.95,0,0,0,209.111,142.492Z" transform="translate(-10.736 -2.299)"/>
  </g>
</svg>
