<svg id="mail" xmlns="http://www.w3.org/2000/svg" width="40" height="30.089" viewBox="0 0 40 30.089">
  <defs>
    <style>
      .cls-1 {
        fill: #007f2d;
      }
    </style>
  </defs>
  <path id="Caminho_6" data-name="Caminho 6" class="cls-1" d="M40,64.472A3.5,3.5,0,0,0,36.484,61H3.516A3.5,3.5,0,0,0,0,64.472V87.617a3.5,3.5,0,0,0,3.516,3.472H36.484A3.5,3.5,0,0,0,40,87.617ZM2.344,64.94,13.631,75.991,2.344,87.138Zm17.731,14.1L4.012,63.315H36ZM15.3,77.621,19.253,81.5a1.182,1.182,0,0,0,1.654,0l3.859-3.811L36,88.774H4Zm11.127-1.576L37.656,64.951V87.138Z" transform="translate(0 -61)"/>
</svg>
