<svg id="Componente_26_1" data-name="Componente 26 – 1" xmlns="http://www.w3.org/2000/svg" width="99.782" height="133.56" viewBox="0 0 99.782 133.56">
  <defs>
    <style>
      .cls-1 {
        fill: #492b28;
      }

      .cls-2 {
        fill: #007f2e;
      }

      .cls-3 {
        fill: #4f8b24;
      }

      .cls-4 {
        fill: #007f2d;
      }
    </style>
  </defs>
  <path id="Caminho_92" data-name="Caminho 92" class="cls-1" d="M95.549,123.965a3.187,3.187,0,0,0,5.186,0L130.28,82.634a3.188,3.188,0,0,0-2.593-5.042H115.4a1.663,1.663,0,0,0-1.358.7l-8.132,11.51a6,6,0,0,1-8.863.537,8.6,8.6,0,0,1-1.935-4.632l-.664-6.579a1.711,1.711,0,0,0-1.7-1.539H68.6A3.188,3.188,0,0,0,66,82.634Z" transform="translate(-48.721 -43.721)"/>
  <path id="Caminho_93" data-name="Caminho 93" class="cls-2" d="M82.276,60.912l5.59,3.018L90.7,65.458a2.214,2.214,0,0,0,1.623.176,1.134,1.134,0,0,0,.795-1.161l-.184-1.94a5.428,5.428,0,0,1,1.117-4.5l1.677-1.758a3.993,3.993,0,0,0,.9-1.4,3.484,3.484,0,0,0-.145-1.572l-.755-2.009a4.534,4.534,0,0,0-2.486-2.969l-3.172-1.175-9.14-3.385a1.887,1.887,0,0,0-2.2,1.392.484.484,0,0,0-.007.186l1.862,12.6A4.2,4.2,0,0,0,82.276,60.912Z" transform="translate(-48.721 -43.721)"/>
  <path id="Caminho_94" data-name="Caminho 94" class="cls-3" d="M97.537,68.3l.486,5.127,1.124,11.917a2.042,2.042,0,0,0,3.731,1.133l9.348-13.05,4.432-6.187a5.029,5.029,0,0,0,.26-4.1L112.3,48.6a.568.568,0,0,0-.105-.2,2.261,2.261,0,0,0-3.1-.344l-7.838,8.216-.223.233-2.8,2.932a5.429,5.429,0,0,0-1.116,4.5Z" transform="translate(-48.721 -43.721)"/>
  <path id="Caminho_95" data-name="Caminho 95" class="cls-4" d="M143.773,82.751,103.75,135.264a6.377,6.377,0,0,1-5.422,2.788,6.97,6.97,0,0,1-5.4-2.788L53.455,82.794a2.608,2.608,0,0,0-4.734,1.511v89.727l.024.025a3.247,3.247,0,0,0,3.245,3.224h87.2l5.91-.031c.054,0,.1.031.155.031s.106-.03.163-.033h.283c0-.007.006-.043.007-.057a3.21,3.21,0,0,0,2.8-3.158V84.268A2.608,2.608,0,0,0,143.773,82.751Z" transform="translate(-48.721 -43.721)"/>
</svg>
