<svg id="Twitter" xmlns="http://www.w3.org/2000/svg" width="46.377" height="38.318" viewBox="0 0 46.377 38.318">
  <defs>
    <style>
      .cls-1 {
        fill: #007f2d;
      }
    </style>
  </defs>
  <path id="Caminho_2" data-name="Caminho 2" class="cls-1" d="M658.419,88.687a18.74,18.74,0,0,1-5.466,1.522,9.681,9.681,0,0,0,4.185-5.35,18.878,18.878,0,0,1-6.043,2.346,9.435,9.435,0,0,0-6.947-3.054,9.6,9.6,0,0,0-9.514,9.674,9.764,9.764,0,0,0,.248,2.2A26.868,26.868,0,0,1,615.27,85.921a9.791,9.791,0,0,0,2.944,12.916,9.34,9.34,0,0,1-4.31-1.212c0,.042,0,.083,0,.123a9.642,9.642,0,0,0,7.633,9.485,9.393,9.393,0,0,1-4.3.166,9.546,9.546,0,0,0,8.888,6.718,18.949,18.949,0,0,1-14.086,4.005,26.594,26.594,0,0,0,14.584,4.347c17.5,0,27.073-14.739,27.073-27.523q0-.629-.028-1.251a19.485,19.485,0,0,0,4.748-5.008Zm0,0" transform="translate(-612.042 -84.151)"/>
</svg>
