<svg id="whatsapp" xmlns="http://www.w3.org/2000/svg" width="38.58" height="39.965" viewBox="0 0 38.58 39.965">
  <defs>
    <style>
      .cls-1 {
        fill: #007f2d;
        fill-rule: evenodd;
      }
    </style>
  </defs>
  <g id="Grupo_4" data-name="Grupo 4" transform="translate(0 0)">
    <g id="Grupo_3" data-name="Grupo 3" transform="translate(0 0)">
      <path id="Caminho_7" data-name="Caminho 7" class="cls-1" d="M577.555,178.722c-.475-.267-2.808-1.561-3.244-1.744s-.757-.278-1.1.207-1.308,1.567-1.6,1.888-.578.352-1.054.084a13.194,13.194,0,0,1-3.8-2.616A14.973,14.973,0,0,1,564.2,173c-.265-.508,0-.767.249-1.005.225-.215.5-.563.757-.843a3.4,3.4,0,0,0,.513-.81.934.934,0,0,0-.008-.871c-.112-.254-.99-2.735-1.356-3.747s-.776-.86-1.058-.871-.6-.064-.925-.077a1.749,1.749,0,0,0-1.312.572,5.621,5.621,0,0,0-1.843,4.08A9.812,9.812,0,0,0,561,174.638c.229.342,3.142,5.641,7.983,7.821s4.869,1.516,5.757,1.467a4.886,4.886,0,0,0,3.35-2.237,4.254,4.254,0,0,0,.368-2.351c-.114-.213-.431-.35-.9-.616Zm-8.882,11.784A15.366,15.366,0,0,1,560,187.824l-6.059,1.994,1.969-6.018a16.417,16.417,0,0,1-3-9.5,15.772,15.772,0,1,1,15.764,16.208Zm0-35.675A19.209,19.209,0,0,0,549.735,174.3a19.786,19.786,0,0,0,2.718,10.053L549.034,194.8l10.485-3.45a18.461,18.461,0,0,0,9.154,2.421,19.476,19.476,0,0,0,0-38.936Z" transform="translate(-549.034 -154.83)"/>
    </g>
  </g>
</svg>
