<svg xmlns="http://www.w3.org/2000/svg" width="320.081" height="402.061" viewBox="0 0 320.081 402.061">
  <g id="Grupo_59" data-name="Grupo 59" transform="translate(-222.766 -867.742)">
    <g id="Grupo_58" data-name="Grupo 58" transform="matrix(0.966, 0.259, -0.259, 0.966, 269.482, 867.742)">
      <path id="Caminho_8" data-name="Caminho 8" d="M27.759,133.942l43.555,23.515L114,180.5l-3.222-33.928c-2.324-16.492,2.723-28.875,8.7-35.087l21.79-22.842L143,86.825,132.519,58.949c-4.295-13.215-12.61-20.659-19.374-23.136L88.438,26.666,17.219.281A14.718,14.718,0,0,0,.1,11.133a3.922,3.922,0,0,0-.053,1.445L14.55,110.753C15.875,119.109,18.931,127.71,27.759,133.942Z" transform="translate(0 0)" fill="#007f2e"/>
      <path id="Caminho_9" data-name="Caminho 9" d="M.578,127.35,3.8,161.278l3.789,39.946,8.754,92.849c2.25,19.7,22.5,18.741,29.068,8.828l72.836-101.677,34.534-48.2c6.225-11.352,4.987-22.224,2.024-31.911L118.826,7.8a4.49,4.49,0,0,0-.818-1.531A17.625,17.625,0,0,0,93.872,3.59L32.8,67.6,31.07,69.421,9.279,92.264C3.3,98.476-1.746,110.859.578,127.35Z" transform="translate(133.419 28.569)" fill="#4f8b24"/>
    </g>
    <text id="img" transform="translate(358.523 1060.56)" fill="#fff" font-size="30" font-family="FiraSans-Regular, Fira Sans"><tspan x="47.115" y="28">img</tspan></text>
  </g>
</svg>
