<svg xmlns="http://www.w3.org/2000/svg" width="423.25" height="36.087" viewBox="0 0 423.25 36.087">
  <g id="Grupo_52" data-name="Grupo 52" transform="translate(-53.75 -1316.116)">
    <g id="Grupo_50" data-name="Grupo 50" transform="translate(53.75 1316.116)">
      <path id="Caminho_27" data-name="Caminho 27" d="M418.613,217.024A1.1,1.1,0,0,0,419,215.71c-.156-.681-1.128-1.119-1.128-1.119l-2.892-1.2-5.713-2.373a4.09,4.09,0,0,0-3.29.547l-10.665,6.327a.478.478,0,0,0-.136.119,1.838,1.838,0,0,0,.3,2.516l8.17,4.831,2.834,1.675a4.418,4.418,0,0,0,3.771.057l1.981-.662a3.4,3.4,0,0,0,1.278-.855,3.926,3.926,0,0,0,.509-1.541l.3-2.347a5.286,5.286,0,0,1,2.719-3.606Z" transform="translate(-394.81 -205.291)" fill="#438927"/>
      <path id="Caminho_28" data-name="Caminho 28" d="M456.47,218.116a.5.5,0,0,0-.136-.12l-10.644-6.363a4.084,4.084,0,0,0-3.288-.557l-5.719,2.352-2.9,1.192s-.973.433-1.133,1.116a1.105,1.105,0,0,0,.385,1.314l1.575,1.058a5.288,5.288,0,0,1,2.707,3.616l.291,2.347a3.846,3.846,0,0,0,.5,1.541,3.393,3.393,0,0,0,1.274.86l1.979.671a4.421,4.421,0,0,0,3.771-.045l2.841-1.666,8.184-4.8a1.837,1.837,0,0,0,.306-2.514" transform="translate(-367.634 -205.247)" fill="#438927"/>
      <path id="Caminho_29" data-name="Caminho 29" d="M452.456,229.031l-.487-3.914a5.29,5.29,0,0,0-2.707-3.618l-3.536-2.371-4.165-2.794-9.673-6.5a2.526,2.526,0,0,0-1.193-.426,1.3,1.3,0,0,0-.144-.005,1.36,1.36,0,0,0-.144.005,2.516,2.516,0,0,0-1.2.423l-9.7,6.464-4.174,2.779-3.544,2.361a5.286,5.286,0,0,0-2.717,3.608l-.5,3.914-.039.311-1.4,10.966a2.2,2.2,0,0,0,2.162,2.129.529.529,0,0,0,.211-.041l13.826-5.436a4.9,4.9,0,0,0,2.935-2.71l1.955-7.147,2.3-8.414,2.273,8.421,1.933,7.154a4.9,4.9,0,0,0,2.923,2.722l13.807,5.482a.547.547,0,0,0,.215.041,2.2,2.2,0,0,0,2.167-2.122l-1.36-10.971Z" transform="translate(-385.935 -206.349)" fill="#a2a700"/>
      <path id="Caminho_30" data-name="Caminho 30" d="M516.033,216.72a1.107,1.107,0,0,0,.391-1.314c-.158-.683-1.13-1.119-1.13-1.119l-2.893-1.2-5.711-2.373a4.1,4.1,0,0,0-3.291.545l-10.663,6.327a.456.456,0,0,0-.136.12,1.836,1.836,0,0,0,.3,2.516l8.168,4.829,2.834,1.677a4.418,4.418,0,0,0,3.771.057l1.983-.664a3.385,3.385,0,0,0,1.276-.855,3.891,3.891,0,0,0,.509-1.539l.3-2.347a5.29,5.29,0,0,1,2.719-3.608Z" transform="translate(-324.703 -205.51)" fill="#438927"/>
      <path id="Caminho_31" data-name="Caminho 31" d="M553.889,217.812a.481.481,0,0,0-.136-.12l-10.643-6.363a4.084,4.084,0,0,0-3.288-.557l-5.72,2.352-2.9,1.192s-.974.433-1.131,1.116a1.1,1.1,0,0,0,.385,1.314l1.575,1.058a5.286,5.286,0,0,1,2.705,3.616l.29,2.347a3.867,3.867,0,0,0,.506,1.541,3.378,3.378,0,0,0,1.272.86l1.981.671a4.412,4.412,0,0,0,3.769-.045l2.841-1.666,8.185-4.8a1.838,1.838,0,0,0,.3-2.514" transform="translate(-297.527 -205.465)" fill="#438927"/>
      <path id="Caminho_32" data-name="Caminho 32" d="M549.876,228.726l-.487-3.914a5.279,5.279,0,0,0-2.7-3.618l-3.537-2.373-4.163-2.793-9.673-6.5a2.562,2.562,0,0,0-1.193-.428c-.048,0-.1,0-.145,0s-.1,0-.144,0a2.548,2.548,0,0,0-1.2.423l-9.7,6.466-4.173,2.779-3.544,2.361a5.286,5.286,0,0,0-2.719,3.608l-.5,3.912-.04.311-1.4,10.966a2.2,2.2,0,0,0,2.16,2.131.6.6,0,0,0,.213-.041l13.826-5.436a4.9,4.9,0,0,0,2.935-2.712l1.955-7.147,2.3-8.412,2.273,8.421,1.931,7.154a4.895,4.895,0,0,0,2.926,2.72l13.807,5.484a.6.6,0,0,0,.213.041,2.2,2.2,0,0,0,2.167-2.122l-1.36-10.971Z" transform="translate(-315.827 -206.568)" fill="#a2a700"/>
      <path id="Caminho_33" data-name="Caminho 33" d="M496.955,217.831l-2.834-1.677a4.413,4.413,0,0,0-3.771-.055l-1.981.662a3.4,3.4,0,0,0-1.278.855,3.92,3.92,0,0,0-.509,1.539l-.3,2.347a5.29,5.29,0,0,1-2.719,3.608l-1.579,1.051a1.105,1.105,0,0,0-.389,1.314c.157.683,1.128,1.119,1.128,1.119l2.893,1.2,5.713,2.371a4.09,4.09,0,0,0,3.29-.545l10.665-6.326a.482.482,0,0,0,.136-.12,1.836,1.836,0,0,0-.3-2.514Z" transform="translate(-332.411 -201.808)" fill="#438927"/>
      <path id="Caminho_34" data-name="Caminho 34" d="M467.558,226.135l-1.575-1.056a5.291,5.291,0,0,1-2.707-3.618l-.291-2.347a3.878,3.878,0,0,0-.5-1.541,3.418,3.418,0,0,0-1.274-.86l-1.979-.669a4.416,4.416,0,0,0-3.771.043l-2.839,1.666-8.185,4.8a1.837,1.837,0,0,0-.306,2.514.474.474,0,0,0,.136.12l10.644,6.363a4.083,4.083,0,0,0,3.288.557l5.72-2.352,2.9-1.192s.973-.433,1.133-1.114a1.107,1.107,0,0,0-.385-1.316" transform="translate(-359.582 -201.852)" fill="#438927"/>
      <path id="Caminho_35" data-name="Caminho 35" d="M501.409,221.107l.039-.311,1.4-10.966a2.2,2.2,0,0,0-2.16-2.131.6.6,0,0,0-.213.041l-13.826,5.436a4.9,4.9,0,0,0-2.936,2.71l-1.955,7.149-2.3,8.413-2.273-8.421-1.931-7.154a4.893,4.893,0,0,0-2.927-2.721l-13.805-5.484a.6.6,0,0,0-.213-.041,2.2,2.2,0,0,0-2.169,2.122l1.36,10.971.04.311.485,3.914a5.288,5.288,0,0,0,2.707,3.618l3.536,2.373,4.165,2.793,9.673,6.5a2.517,2.517,0,0,0,1.193.426,1.287,1.287,0,0,0,.144.005c.048,0,.1,0,.144,0a2.541,2.541,0,0,0,1.2-.423l9.7-6.466,4.174-2.779,3.544-2.359a5.293,5.293,0,0,0,2.719-3.609Z" transform="translate(-350.678 -207.627)" fill="#a2a700"/>
    </g>
    <g id="Grupo_51" data-name="Grupo 51" transform="translate(220.275 1316.116)">
      <path id="Caminho_27-2" data-name="Caminho 27" d="M418.613,217.024A1.1,1.1,0,0,0,419,215.71c-.156-.681-1.128-1.119-1.128-1.119l-2.892-1.2-5.713-2.373a4.09,4.09,0,0,0-3.29.547l-10.665,6.327a.478.478,0,0,0-.136.119,1.838,1.838,0,0,0,.3,2.516l8.17,4.831,2.834,1.675a4.418,4.418,0,0,0,3.771.057l1.981-.662a3.4,3.4,0,0,0,1.278-.855,3.926,3.926,0,0,0,.509-1.541l.3-2.347a5.286,5.286,0,0,1,2.719-3.606Z" transform="translate(-394.81 -205.291)" fill="#438927"/>
      <path id="Caminho_28-2" data-name="Caminho 28" d="M456.47,218.116a.5.5,0,0,0-.136-.12l-10.644-6.363a4.084,4.084,0,0,0-3.288-.557l-5.719,2.352-2.9,1.192s-.973.433-1.133,1.116a1.105,1.105,0,0,0,.385,1.314l1.575,1.058a5.288,5.288,0,0,1,2.707,3.616l.291,2.347a3.846,3.846,0,0,0,.5,1.541,3.393,3.393,0,0,0,1.274.86l1.979.671a4.421,4.421,0,0,0,3.771-.045l2.841-1.666,8.184-4.8a1.837,1.837,0,0,0,.306-2.514" transform="translate(-367.634 -205.247)" fill="#438927"/>
      <path id="Caminho_29-2" data-name="Caminho 29" d="M452.456,229.031l-.487-3.914a5.29,5.29,0,0,0-2.707-3.618l-3.536-2.371-4.165-2.794-9.673-6.5a2.526,2.526,0,0,0-1.193-.426,1.3,1.3,0,0,0-.144-.005,1.36,1.36,0,0,0-.144.005,2.516,2.516,0,0,0-1.2.423l-9.7,6.464-4.174,2.779-3.544,2.361a5.286,5.286,0,0,0-2.717,3.608l-.5,3.914-.039.311-1.4,10.966a2.2,2.2,0,0,0,2.162,2.129.529.529,0,0,0,.211-.041l13.826-5.436a4.9,4.9,0,0,0,2.935-2.71l1.955-7.147,2.3-8.414,2.273,8.421,1.933,7.154a4.9,4.9,0,0,0,2.923,2.722l13.807,5.482a.547.547,0,0,0,.215.041,2.2,2.2,0,0,0,2.167-2.122l-1.36-10.971Z" transform="translate(-385.935 -206.349)" fill="#a2a700"/>
      <path id="Caminho_30-2" data-name="Caminho 30" d="M516.033,216.72a1.107,1.107,0,0,0,.391-1.314c-.158-.683-1.13-1.119-1.13-1.119l-2.893-1.2-5.711-2.373a4.1,4.1,0,0,0-3.291.545l-10.663,6.327a.456.456,0,0,0-.136.12,1.836,1.836,0,0,0,.3,2.516l8.168,4.829,2.834,1.677a4.418,4.418,0,0,0,3.771.057l1.983-.664a3.385,3.385,0,0,0,1.276-.855,3.891,3.891,0,0,0,.509-1.539l.3-2.347a5.29,5.29,0,0,1,2.719-3.608Z" transform="translate(-324.703 -205.51)" fill="#438927"/>
      <path id="Caminho_31-2" data-name="Caminho 31" d="M553.889,217.812a.481.481,0,0,0-.136-.12l-10.643-6.363a4.084,4.084,0,0,0-3.288-.557l-5.72,2.352-2.9,1.192s-.974.433-1.131,1.116a1.1,1.1,0,0,0,.385,1.314l1.575,1.058a5.286,5.286,0,0,1,2.705,3.616l.29,2.347a3.867,3.867,0,0,0,.506,1.541,3.378,3.378,0,0,0,1.272.86l1.981.671a4.412,4.412,0,0,0,3.769-.045l2.841-1.666,8.185-4.8a1.838,1.838,0,0,0,.3-2.514" transform="translate(-297.527 -205.465)" fill="#438927"/>
      <path id="Caminho_32-2" data-name="Caminho 32" d="M549.876,228.726l-.487-3.914a5.279,5.279,0,0,0-2.7-3.618l-3.537-2.373-4.163-2.793-9.673-6.5a2.562,2.562,0,0,0-1.193-.428c-.048,0-.1,0-.145,0s-.1,0-.144,0a2.548,2.548,0,0,0-1.2.423l-9.7,6.466-4.173,2.779-3.544,2.361a5.286,5.286,0,0,0-2.719,3.608l-.5,3.912-.04.311-1.4,10.966a2.2,2.2,0,0,0,2.16,2.131.6.6,0,0,0,.213-.041l13.826-5.436a4.9,4.9,0,0,0,2.935-2.712l1.955-7.147,2.3-8.412,2.273,8.421,1.931,7.154a4.895,4.895,0,0,0,2.926,2.72l13.807,5.484a.6.6,0,0,0,.213.041,2.2,2.2,0,0,0,2.167-2.122l-1.36-10.971Z" transform="translate(-315.827 -206.568)" fill="#a2a700"/>
      <path id="Caminho_33-2" data-name="Caminho 33" d="M496.955,217.831l-2.834-1.677a4.413,4.413,0,0,0-3.771-.055l-1.981.662a3.4,3.4,0,0,0-1.278.855,3.92,3.92,0,0,0-.509,1.539l-.3,2.347a5.29,5.29,0,0,1-2.719,3.608l-1.579,1.051a1.105,1.105,0,0,0-.389,1.314c.157.683,1.128,1.119,1.128,1.119l2.893,1.2,5.713,2.371a4.09,4.09,0,0,0,3.29-.545l10.665-6.326a.482.482,0,0,0,.136-.12,1.836,1.836,0,0,0-.3-2.514Z" transform="translate(-332.411 -201.808)" fill="#438927"/>
      <path id="Caminho_34-2" data-name="Caminho 34" d="M467.558,226.135l-1.575-1.056a5.291,5.291,0,0,1-2.707-3.618l-.291-2.347a3.878,3.878,0,0,0-.5-1.541,3.418,3.418,0,0,0-1.274-.86l-1.979-.669a4.416,4.416,0,0,0-3.771.043l-2.839,1.666-8.185,4.8a1.837,1.837,0,0,0-.306,2.514.474.474,0,0,0,.136.12l10.644,6.363a4.083,4.083,0,0,0,3.288.557l5.72-2.352,2.9-1.192s.973-.433,1.133-1.114a1.107,1.107,0,0,0-.385-1.316" transform="translate(-359.582 -201.852)" fill="#438927"/>
      <path id="Caminho_35-2" data-name="Caminho 35" d="M501.409,221.107l.039-.311,1.4-10.966a2.2,2.2,0,0,0-2.16-2.131.6.6,0,0,0-.213.041l-13.826,5.436a4.9,4.9,0,0,0-2.936,2.71l-1.955,7.149-2.3,8.413-2.273-8.421-1.931-7.154a4.893,4.893,0,0,0-2.927-2.721l-13.805-5.484a.6.6,0,0,0-.213-.041,2.2,2.2,0,0,0-2.169,2.122l1.36,10.971.04.311.485,3.914a5.288,5.288,0,0,0,2.707,3.618l3.536,2.373,4.165,2.793,9.673,6.5a2.517,2.517,0,0,0,1.193.426,1.287,1.287,0,0,0,.144.005c.048,0,.1,0,.144,0a2.541,2.541,0,0,0,1.2-.423l9.7-6.466,4.174-2.779,3.544-2.359a5.293,5.293,0,0,0,2.719-3.609Z" transform="translate(-350.678 -207.627)" fill="#a2a700"/>
    </g>
  </g>
</svg>
