<svg xmlns="http://www.w3.org/2000/svg" width="395.838" height="55.641" viewBox="0 0 395.838 55.641">
  <defs>
    <style>
      .cls-1 {
        fill: #fff;
      }
    </style>
  </defs>
  <g id="Grupo_65" data-name="Grupo 65" transform="translate(-140.162 -708.246)">
    <g id="Grupo_46" data-name="Grupo 46" transform="translate(140.162 708.246)">
      <path id="Caminho_27" data-name="Caminho 27" class="cls-1" d="M431.511,220.357a1.7,1.7,0,0,0,.6-2.026c-.241-1.05-1.74-1.726-1.74-1.726l-4.46-1.851L417.1,211.1a6.306,6.306,0,0,0-5.072.843l-16.445,9.755a.735.735,0,0,0-.209.183,2.834,2.834,0,0,0,.456,3.879l12.6,7.448,4.37,2.583a6.811,6.811,0,0,0,5.815.088l3.055-1.021a5.24,5.24,0,0,0,1.97-1.318,6.053,6.053,0,0,0,.785-2.376l.462-3.619a8.151,8.151,0,0,1,4.192-5.56Z" transform="translate(-394.81 -202.266)"/>
      <path id="Caminho_28" data-name="Caminho 28" class="cls-1" d="M469.418,222.008a.776.776,0,0,0-.209-.185L452.8,212.012a6.3,6.3,0,0,0-5.07-.859l-8.819,3.627-4.465,1.837s-1.5.668-1.747,1.721a1.7,1.7,0,0,0,.594,2.026l2.429,1.631a8.154,8.154,0,0,1,4.173,5.576l.448,3.619a5.93,5.93,0,0,0,.777,2.376,5.232,5.232,0,0,0,1.965,1.326l3.052,1.034a6.817,6.817,0,0,0,5.815-.069l4.38-2.569,12.618-7.4a2.832,2.832,0,0,0,.472-3.876" transform="translate(-332.445 -202.164)"/>
      <path id="Caminho_29" data-name="Caminho 29" class="cls-1" d="M477.01,239.667l-.751-6.035a8.156,8.156,0,0,0-4.173-5.579l-5.451-3.656-6.422-4.309L445.3,210.069a3.9,3.9,0,0,0-1.84-.658,2.023,2.023,0,0,0-.223-.008,2.128,2.128,0,0,0-.223.008,3.879,3.879,0,0,0-1.843.652l-14.949,9.967-6.435,4.285-5.465,3.641a8.151,8.151,0,0,0-4.189,5.563l-.769,6.035-.061.48-2.158,16.908a3.392,3.392,0,0,0,3.333,3.282.815.815,0,0,0,.326-.064l21.318-8.381a7.549,7.549,0,0,0,4.526-4.179l3.015-11.02,3.55-12.974,3.505,12.984,2.98,11.03a7.547,7.547,0,0,0,4.508,4.2l21.289,8.453a.837.837,0,0,0,.331.064,3.394,3.394,0,0,0,3.341-3.272l-2.1-16.916Z" transform="translate(-374.442 -204.694)"/>
      <path id="Caminho_30" data-name="Caminho 30" class="cls-1" d="M528.931,220.053a1.708,1.708,0,0,0,.6-2.026c-.244-1.053-1.742-1.726-1.742-1.726l-4.46-1.851-8.805-3.659a6.322,6.322,0,0,0-5.075.84l-16.442,9.755a.7.7,0,0,0-.209.186,2.831,2.831,0,0,0,.456,3.879L505.85,232.9l4.369,2.585a6.813,6.813,0,0,0,5.815.088l3.057-1.024a5.219,5.219,0,0,0,1.967-1.318,6,6,0,0,0,.785-2.373l.461-3.619a8.157,8.157,0,0,1,4.192-5.563Z" transform="translate(-233.923 -202.768)"/>
      <path id="Caminho_31" data-name="Caminho 31" class="cls-1" d="M566.837,221.7a.731.731,0,0,0-.209-.186l-16.41-9.811a6.3,6.3,0,0,0-5.069-.859l-8.819,3.627-4.468,1.837s-1.5.668-1.745,1.721a1.7,1.7,0,0,0,.594,2.026l2.429,1.631a8.152,8.152,0,0,1,4.171,5.576l.447,3.619a5.958,5.958,0,0,0,.78,2.376,5.209,5.209,0,0,0,1.962,1.326l3.055,1.034a6.8,6.8,0,0,0,5.812-.069l4.38-2.569,12.621-7.4a2.834,2.834,0,0,0,.469-3.876" transform="translate(-171.559 -202.666)"/>
      <path id="Caminho_32" data-name="Caminho 32" class="cls-1" d="M574.429,239.362l-.751-6.035a8.139,8.139,0,0,0-4.171-5.579l-5.454-3.659-6.419-4.306-14.914-10.02a3.951,3.951,0,0,0-1.84-.66c-.074-.005-.148-.005-.223-.005s-.151,0-.223.005a3.929,3.929,0,0,0-1.843.652l-14.949,9.97-6.435,4.285-5.465,3.64a8.15,8.15,0,0,0-4.192,5.563l-.769,6.032-.061.48-2.156,16.908a3.4,3.4,0,0,0,3.331,3.285.929.929,0,0,0,.328-.064l21.318-8.381a7.561,7.561,0,0,0,4.526-4.181l3.015-11.019,3.55-12.971,3.505,12.984,2.977,11.03a7.546,7.546,0,0,0,4.51,4.194l21.289,8.456a.931.931,0,0,0,.328.064,3.39,3.39,0,0,0,3.341-3.272l-2.1-16.916Z" transform="translate(-213.555 -205.198)"/>
      <path id="Caminho_33" data-name="Caminho 33" class="cls-1" d="M505.319,218.979l-4.37-2.585a6.8,6.8,0,0,0-5.815-.085l-3.055,1.021a5.237,5.237,0,0,0-1.97,1.318,6.048,6.048,0,0,0-.785,2.373l-.461,3.619a8.157,8.157,0,0,1-4.192,5.563l-2.434,1.62a1.7,1.7,0,0,0-.6,2.026c.242,1.053,1.739,1.726,1.739,1.726l4.46,1.854,8.808,3.656a6.307,6.307,0,0,0,5.072-.841l16.444-9.755a.745.745,0,0,0,.209-.186,2.831,2.831,0,0,0-.459-3.876Z" transform="translate(-251.613 -194.273)"/>
      <path id="Caminho_34" data-name="Caminho 34" class="cls-1" d="M480.452,231.816l-2.429-1.628a8.158,8.158,0,0,1-4.173-5.579l-.448-3.619a5.982,5.982,0,0,0-.777-2.376,5.271,5.271,0,0,0-1.965-1.326l-3.052-1.031a6.81,6.81,0,0,0-5.815.066l-4.377,2.569-12.621,7.4a2.832,2.832,0,0,0-.472,3.877.734.734,0,0,0,.21.186l16.412,9.81a6.3,6.3,0,0,0,5.07.859l8.819-3.627,4.465-1.837s1.5-.668,1.747-1.718a1.707,1.707,0,0,0-.594-2.028" transform="translate(-313.968 -194.374)"/>
      <path id="Caminho_35" data-name="Caminho 35" class="cls-1" d="M525.941,228.412l.061-.48,2.156-16.908a3.4,3.4,0,0,0-3.33-3.285.929.929,0,0,0-.329.064l-21.318,8.381a7.55,7.55,0,0,0-4.526,4.179l-3.015,11.022-3.55,12.971-3.505-12.984-2.978-11.03a7.544,7.544,0,0,0-4.513-4.195l-21.286-8.455a.929.929,0,0,0-.329-.064,3.394,3.394,0,0,0-3.344,3.272l2.1,16.916.061.48.748,6.035a8.153,8.153,0,0,0,4.173,5.579l5.451,3.659,6.422,4.306L490,257.893a3.883,3.883,0,0,0,1.84.658,2.038,2.038,0,0,0,.223.008c.074,0,.151,0,.223-.005a3.917,3.917,0,0,0,1.843-.652l14.949-9.969,6.435-4.285,5.465-3.638a8.16,8.16,0,0,0,4.192-5.565Z" transform="translate(-293.534 -207.627)"/>
    </g>
  </g>
</svg>
