<svg xmlns="http://www.w3.org/2000/svg" width="111" height="15.603" viewBox="0 0 111 15.603">
  <g id="Grupo_7" data-name="Grupo 7" transform="translate(-394.81 -207.627)">
    <path id="Caminho_27" data-name="Caminho 27" d="M405.1,213.533a.477.477,0,0,0,.168-.568c-.068-.294-.488-.484-.488-.484l-1.251-.519-2.47-1.026a1.768,1.768,0,0,0-1.422.236l-4.611,2.735a.207.207,0,0,0-.059.051.8.8,0,0,0,.128,1.088l3.532,2.089,1.225.724a1.91,1.91,0,0,0,1.63.025l.857-.286a1.469,1.469,0,0,0,.552-.37,1.7,1.7,0,0,0,.22-.666l.129-1.015a2.286,2.286,0,0,1,1.175-1.559Z" transform="translate(0 -0.833)" fill="#438927"/>
    <path id="Caminho_28" data-name="Caminho 28" d="M442.906,214.04a.216.216,0,0,0-.059-.052l-4.6-2.751a1.766,1.766,0,0,0-1.422-.241l-2.473,1.017-1.252.515s-.421.187-.49.483a.478.478,0,0,0,.167.568l.681.457a2.286,2.286,0,0,1,1.17,1.564l.126,1.015a1.663,1.663,0,0,0,.218.666,1.467,1.467,0,0,0,.551.372l.856.29a1.911,1.911,0,0,0,1.631-.019l1.228-.72,3.538-2.076a.794.794,0,0,0,.132-1.087" transform="translate(-9.686 -0.848)" fill="#438927"/>
    <path id="Caminho_29" data-name="Caminho 29" d="M426.736,217.89l-.21-1.692a2.287,2.287,0,0,0-1.17-1.564l-1.529-1.025-1.8-1.208-4.182-2.81a1.092,1.092,0,0,0-.516-.184.561.561,0,0,0-.062,0,.588.588,0,0,0-.062,0,1.088,1.088,0,0,0-.517.183l-4.192,2.795-1.8,1.2-1.532,1.021a2.286,2.286,0,0,0-1.175,1.56l-.216,1.692-.017.135-.605,4.741a.951.951,0,0,0,.935.92.229.229,0,0,0,.091-.018l5.978-2.35a2.117,2.117,0,0,0,1.269-1.172l.845-3.09,1-3.638.983,3.641.836,3.093a2.117,2.117,0,0,0,1.264,1.177l5.97,2.37a.236.236,0,0,0,.093.018.952.952,0,0,0,.937-.918l-.588-4.744Z" transform="translate(-3.163 -0.456)" fill="#a2a700"/>
    <path id="Caminho_30" data-name="Caminho 30" d="M502.523,213.229a.479.479,0,0,0,.169-.568c-.068-.3-.488-.484-.488-.484l-1.251-.519-2.469-1.026a1.773,1.773,0,0,0-1.423.236l-4.61,2.735a.2.2,0,0,0-.059.052.794.794,0,0,0,.128,1.088l3.532,2.088,1.225.725a1.91,1.91,0,0,0,1.631.025l.857-.287a1.463,1.463,0,0,0,.552-.37,1.683,1.683,0,0,0,.22-.665l.129-1.015a2.287,2.287,0,0,1,1.176-1.56Z" transform="translate(-24.987 -0.755)" fill="#438927"/>
    <path id="Caminho_31" data-name="Caminho 31" d="M540.326,213.736a.207.207,0,0,0-.059-.052l-4.6-2.751a1.766,1.766,0,0,0-1.422-.241l-2.473,1.017-1.253.515s-.421.187-.489.483a.477.477,0,0,0,.167.568l.681.457a2.286,2.286,0,0,1,1.17,1.564l.125,1.015a1.672,1.672,0,0,0,.219.666,1.46,1.46,0,0,0,.55.372l.857.29a1.907,1.907,0,0,0,1.63-.019l1.228-.721,3.539-2.076a.8.8,0,0,0,.132-1.087" transform="translate(-34.673 -0.77)" fill="#438927"/>
    <path id="Caminho_32" data-name="Caminho 32" d="M524.156,217.585l-.21-1.692a2.283,2.283,0,0,0-1.17-1.564l-1.529-1.026-1.8-1.207-4.182-2.81a1.108,1.108,0,0,0-.516-.185h-.062c-.021,0-.042,0-.062,0a1.1,1.1,0,0,0-.517.183l-4.192,2.8-1.8,1.2-1.532,1.021a2.285,2.285,0,0,0-1.175,1.56l-.216,1.692-.017.135-.6,4.741a.952.952,0,0,0,.934.921.26.26,0,0,0,.092-.018l5.978-2.35a2.12,2.12,0,0,0,1.269-1.173l.845-3.09,1-3.637.983,3.641.835,3.093a2.116,2.116,0,0,0,1.265,1.176l5.97,2.371a.26.26,0,0,0,.092.018.951.951,0,0,0,.937-.918l-.588-4.744Z" transform="translate(-28.15 -0.377)" fill="#a2a700"/>
    <path id="Caminho_33" data-name="Caminho 33" d="M488.194,216.629l-1.225-.725a1.908,1.908,0,0,0-1.631-.024l-.857.286a1.469,1.469,0,0,0-.552.37,1.7,1.7,0,0,0-.22.665l-.129,1.015a2.287,2.287,0,0,1-1.176,1.56l-.683.454a.478.478,0,0,0-.168.568c.068.3.488.484.488.484l1.251.52,2.47,1.025a1.768,1.768,0,0,0,1.422-.236l4.611-2.735a.208.208,0,0,0,.059-.052.794.794,0,0,0-.129-1.087Z" transform="translate(-22.24 -2.074)" fill="#438927"/>
    <path id="Caminho_34" data-name="Caminho 34" d="M454.051,220.184l-.681-.457a2.288,2.288,0,0,1-1.17-1.564l-.126-1.015a1.676,1.676,0,0,0-.218-.666,1.478,1.478,0,0,0-.551-.372l-.856-.289a1.909,1.909,0,0,0-1.631.019l-1.228.72-3.539,2.076a.794.794,0,0,0-.132,1.087.205.205,0,0,0,.059.052l4.6,2.751a1.765,1.765,0,0,0,1.422.241l2.473-1.017,1.252-.515s.421-.187.49-.482a.479.479,0,0,0-.167-.569" transform="translate(-12.556 -2.058)" fill="#438927"/>
    <path id="Caminho_35" data-name="Caminho 35" d="M475.711,213.455l.017-.135.6-4.741a.952.952,0,0,0-.934-.921.26.26,0,0,0-.092.018l-5.978,2.35a2.117,2.117,0,0,0-1.269,1.172l-.845,3.091-1,3.637-.983-3.641-.835-3.093a2.116,2.116,0,0,0-1.265-1.176l-5.969-2.371a.261.261,0,0,0-.092-.018.952.952,0,0,0-.938.917l.588,4.744.017.135.21,1.692a2.286,2.286,0,0,0,1.17,1.564l1.529,1.026,1.8,1.207,4.182,2.81a1.088,1.088,0,0,0,.516.184.559.559,0,0,0,.062,0c.021,0,.042,0,.062,0a1.1,1.1,0,0,0,.517-.183l4.192-2.8,1.8-1.2,1.532-1.02a2.288,2.288,0,0,0,1.176-1.561Z" transform="translate(-15.729 0)" fill="#a2a700"/>
  </g>
</svg>
