<svg id="Componente_12_1" data-name="Componente 12 – 1" xmlns="http://www.w3.org/2000/svg" width="302" height="186.832" viewBox="0 0 302 186.832">
  <path id="Caminho_10" data-name="Caminho 10" d="M777.181,537.935a2.032,2.032,0,0,1-.728-1.284,2.791,2.791,0,0,0-.535-.131,12.044,12.044,0,0,0-1.266.529l-.708.339c-1.968.839-4.01,1.5-6.053,2.167a39.523,39.523,0,0,0-9.249,3.85,12.834,12.834,0,0,0-1.733,1.088,8.543,8.543,0,0,1-5.256,1.92,5.215,5.215,0,0,1-2.765-.987,5.956,5.956,0,0,0-.954-.467,3.554,3.554,0,0,0-.357,1.326,6.014,6.014,0,0,1-1.807,4.177,4.956,4.956,0,0,1-4.338,1,4.4,4.4,0,0,0-1.261-.033c-1.525.321-2.816.7-4.109,1.038-3.624,1.02-7.3,2.066-12.035,1.424a2.087,2.087,0,0,1-1.781-2.268,4.625,4.625,0,0,0-2.268-4.465,2.17,2.17,0,0,1-.969-1.653,2.094,2.094,0,0,1,.776-1.727,2.573,2.573,0,0,0,1.139-2.476,5.721,5.721,0,0,0-3.318-3.912.959.959,0,0,0-.779,0,3.525,3.525,0,0,1-3.77-1.359c-1.585-1.76-2.9-6.99-2.9-7.762a6.459,6.459,0,0,1,1.576-3.368,4.8,4.8,0,0,0,.934-1.519,8.222,8.222,0,0,0-.164-4.076,21.3,21.3,0,0,1-.44-2.655,15.357,15.357,0,0,1,3.324-11.06l.678-1.041a6.417,6.417,0,0,0,1-1.712s-.128-.482-1.712-1.6a21.945,21.945,0,0,0-5.3-2.334,28.324,28.324,0,0,1-6.2-2.717c-2.64-1.7-6.3-4.028-7.325-9.395a10.712,10.712,0,0,1-.256-2.765,9.641,9.641,0,0,0-.089-1.588,2.611,2.611,0,0,1-2.188.125c-.083,0-.17.024-.253.018a2.107,2.107,0,0,1-1.632-2.423,11.99,11.99,0,0,1,2.476-4.724,12.354,12.354,0,0,0,1.891-3.1,5.191,5.191,0,0,0,.342-1.3,6.032,6.032,0,0,1-4.266-2.182c-1.043-.791-1.043-2.976-1.043-7.328-.065-.392-.107-1.034-.143-1.65a7.114,7.114,0,0,0-.663-3.2c-.708-1.329-2.39-2.717-4.028-4.106-.948-.776-1.894-1.585-2.744-2.411-1.8.856-4.353.6-6.246.449a11.882,11.882,0,0,0-3.056-.08,2.341,2.341,0,0,0-.714.615,6.665,6.665,0,0,1-3.434,2.218,10.682,10.682,0,0,1-3.585-.083,11.923,11.923,0,0,0-1.472-.128,41.6,41.6,0,0,0-5.652.936c-1.608.357-3.261.678-5.075.919a26.778,26.778,0,0,1-7.147-.077,23.778,23.778,0,0,0-5.824-.113c-.19,7.2-1.716,9.184-2.911,10.052a3.336,3.336,0,0,1-3.255.5c-2.179-.473-2.985-2.964-3.767-5.36-.164-.416-.357-1.017-.547-1.57a4.8,4.8,0,0,1-3.012,1.293.972.972,0,0,1-.259.024c-2.09,0-3.916-1.43-4.989-3.82a9.978,9.978,0,0,1-.657-5.149c.11-1.775.128-2.548-.954-3.553-4.323-4.3-15.174-3.464-22.351-2.949-1.623.116-3.1.232-4.341.276-.806,0-1.617.051-2.42.116a23.65,23.65,0,0,1-6.118-.146,8.369,8.369,0,0,1-3.238-1.472,4.248,4.248,0,0,0-1.258-.678,11.709,11.709,0,0,1-1.522-.714c-.294.083-.713.208-1.26.386a15.2,15.2,0,0,0-2.587,1.487,17.753,17.753,0,0,1-3.464,1.941,25.9,25.9,0,0,1-2.976,1.118c-2.477.823-3.22,1.049-3.5,3.333a10.348,10.348,0,0,0,.357,3.413l.167.776a2.059,2.059,0,0,1-.428,1.712,1.8,1.8,0,0,1-.71.568c-1.249,1.231-3.526,2.185-6.761,3.464a23.367,23.367,0,0,0-3.478,1.537,13.514,13.514,0,0,0-3.294,3.832,29.032,29.032,0,0,1-2.414,3.288,12.809,12.809,0,0,1-4.144,3.294,7.82,7.82,0,0,0-2.875,2.28,7.151,7.151,0,0,0-1,2.94,15.42,15.42,0,0,1-.716,2.887c-1.356,3.318-3.779,4.543-5.723,5.533a6.055,6.055,0,0,0-2.729,2.022c-.633,1.032-.309,3.071,0,5.013.464,2.878,1,6.175-.925,8.815a5.845,5.845,0,0,1-2.913,1.971c-.318.1-.413.217-.547.633-.036.16.03.321.273.936a5.046,5.046,0,0,1-.14,4.855,12.522,12.522,0,0,1-3.743,3.618c-.63.494-1.276.972-1.727,1.4a22.994,22.994,0,0,0-1.359,2,21.9,21.9,0,0,1-2.652,3.642,57.248,57.248,0,0,1-9.127,6.457,70.019,70.019,0,0,0-6.618,4.433c-1.989,1.5-3.951,3.217-5.922,4.935,1.656.17,3.306.431,4.944.711a38.015,38.015,0,0,0,8.925.823c2.59-.125,4.995-.357,7.314-.553,7.082-.612,13.75-1.2,21.736.91l3.782.954c5.916,1.49,11.523,2.884,17.231,5.6,6.921,3.026,12.522,2.851,20.365,2.539l2.01-.062c.981,0,1.906,0,2.813-.03,5.307-.163,10.735-.229,15.561,3.086,3.591,2.182,5.143,5.747,6.5,8.833a29,29,0,0,0,2.363,4.543c3.1,4.819,4.87,7.8,5.438,13.878.095,1.707.029,3.288-.036,4.888-.157,3.359-.258,6.276,1.133,8.753a23.526,23.526,0,0,0,2.554,3.461c1.745,2.075,3.559,4.225,4.367,7.525a18.315,18.315,0,0,1,.265,4.106c-.053,2.557.045,3.458,1.418,4.237,1.133.58,4.4.44,6.734.327,1.683-.065,3.232-.128,4.469-.065l2.453-.039a49.293,49.293,0,0,1,8.408.327c2.156.392,5.03,1.148,5.89,3.464.937,2.459-.922,4.751-2.848,7.177-.357.455-.743.91-1.064,1.365a18.575,18.575,0,0,0,2.976-.134c2.328-.163,4.709-.333,6.876.651a6.261,6.261,0,0,1,3.122,3.041,3.459,3.459,0,0,0,1.035,1.323c-.142-.1.532-.1,1.067-.068a4.85,4.85,0,0,1,2.952.755l.089-.039c.642-.244.725-.309.877-.58a3.031,3.031,0,0,0-.071-1.183,6.193,6.193,0,0,1,.357-3.9c1.475-3.365,5.158-4.724,8.393-5.884,2.375-.874,4.582-1.715,5.809-3.125-.068.051-.1-.083-.1-.285a4.9,4.9,0,0,1,.809-3.092,16.646,16.646,0,0,1,5.5-3.8l.583-.3c1.1-.55,2.2-1.026,3.282-1.51,1.05-.47,2.12-.922,3.154-1.439a24.569,24.569,0,0,0,6.615-5.018L705,596.7a51.846,51.846,0,0,1,6.957-5.568c1.261-.924,2.587-1.834,3.88-2.863,3.015-2.417,5.887-2.545,8.684-2.7a22.22,22.22,0,0,0,4.617-.586c1.2-.434,1.876-1.421,2.78-2.685a8.849,8.849,0,0,1,4.367-3.737c1.873-.666,5.271-.535,9.847-.262,1.6.1,3.029.149,3.871.134,3.978,0,5.628,2.15,6.826,3.731.987,1.272,1.469,1.912,3.137,1.912a3.131,3.131,0,0,0,2.518-1.87,2.3,2.3,0,0,0,.2-1.974c-.08-.1-.357-.161-.791-.068a2.163,2.163,0,0,1-1.941-.773,2.119,2.119,0,0,1-.291-2.046c3.663-8.993,11.907-11.708,18.665-13.063,3.835-.467,8.934-1.944,10.828-3.172a47.488,47.488,0,0,0-7.088,1.6,19.726,19.726,0,0,1-2.176.565,2.082,2.082,0,0,1-2.45-2.033c0-.621-.036-1.2-.065-1.754-.163-2.31-.324-4.882,2.036-7.23.357-.648,1.653-1.177,3.11-1.79.583-.28,1.4-.624,1.677-.815.535-.354,1.008-.722,1.463-1.067a18.267,18.267,0,0,1,3.767-2.39,29.316,29.316,0,0,1,3.365-.966c4.48-1.109,6.582-1.959,6.389-3.889-.229-1.552-3.687-1.228-7.828-.711-2.914.357-5.384.645-7.186.062a10.753,10.753,0,0,1-3.33-1.873c-.4-.309-.8-.6-1.2-.856a1.887,1.887,0,0,1-1.151.452A2.042,2.042,0,0,1,777.181,537.935Z" transform="translate(-497.19 -441.664)" fill="#a2a700"/>
  <g id="Grupo_6" data-name="Grupo 6" transform="translate(-3033.5 -275.5)">
    <path id="União_1" data-name="União 1" d="M2.4,19.2a12,12,0,1,1,19.2,0L12,36Z" transform="translate(3211 376.5)" fill="#492b28"/>
    <circle id="Elipse_2" data-name="Elipse 2" cx="7" cy="7" r="7" transform="translate(3216 381.5)" fill="#fff"/>
  </g>
</svg>
