<?xml version="1.0" encoding="utf-8"?>
<!-- Generator: Adobe Illustrator 24.2.1, SVG Export Plug-In . SVG Version: 6.00 Build 0)  -->
<svg version="1.1" id="Camada_1" xmlns="http://www.w3.org/2000/svg" xmlns:xlink="http://www.w3.org/1999/xlink" x="0px" y="0px"
	 viewBox="0 0 486.7 185.8" style="enable-background:new 0 0 486.7 185.8;" xml:space="preserve">
<style type="text/css">
	.st0{fill:#492B28;}
	.st1{fill:#007F2E;}
	.st2{fill:#4F8B24;}
	.st3{fill:#007F2D;}
</style>
<g>
	<path class="st0" d="M64,101.8c1.3,1.8,3.9,1.8,5.2,0l29.5-41.3c1.5-2.1,0-5-2.6-5H83.8c-0.5,0-1,0.3-1.4,0.7l-8.1,11.5
		c-1.8,2.6-6.3,3.2-8.9,0.5c-1.7-1.8-1.9-4.6-1.9-4.6l-0.7-6.6c-0.1-0.9-0.8-1.5-1.7-1.5H37c-2.6,0-4.1,2.9-2.6,5L64,101.8z"/>
	<path class="st1" d="M50.7,38.7l5.6,3l2.8,1.5c0,0,1,0.5,1.6,0.2c0.9-0.3,0.8-1.2,0.8-1.2l-0.2-1.9c-0.3-2.1,0.3-3.7,1.1-4.5
		l1.7-1.8c0,0,0.7-0.7,0.9-1.4c0.2-0.6-0.1-1.6-0.1-1.6l-0.8-2c-0.6-1.7-1.6-2.7-2.5-3l-3.2-1.2l-9.1-3.4c-1-0.2-2,0.4-2.2,1.4
		c0,0.1,0,0.1,0,0.2L49,35.7C49.2,36.8,49.6,37.9,50.7,38.7z"/>
	<path class="st2" d="M66,46.1l0.5,5.1l1.1,11.9c0.3,2.5,2.9,2.4,3.7,1.1l9.3-13.1l4.4-6.2c0.8-1.5,0.6-2.9,0.3-4.1l-4.6-14.5
		c0-0.1-0.1-0.1-0.1-0.2c-0.8-0.9-2.1-1.1-3.1-0.3l-7.8,8.2l-0.2,0.2l-2.8,2.9c-0.8,0.8-1.4,2.4-1.1,4.5L66,46.1z"/>
	<path class="st3" d="M112.2,60.6l-40,52.5c-0.9,1.2-2.5,2.8-5.4,2.8c-1.4,0-3.8-0.7-5.4-2.8L21.9,60.6c-1.5-2.1-4.7-1-4.7,1.5v89.7
		l0,0c0,1.8,1.5,3.2,3.2,3.2h87.2l5.9,0c0.1,0,0.1,0,0.2,0c0.1,0,0.1,0,0.2,0l0.3,0c0,0,0,0,0-0.1c1.6-0.2,2.8-1.5,2.8-3.2V62.1
		C116.9,59.5,113.7,58.5,112.2,60.6z"/>
	<path class="st1" d="M139.9,42.1c0.1,0.5,0.1,1,0.1,1.3l0.1,4.1c0,1,0.1,2.1,0.1,3c0,0.7-0.1,1.4-0.1,2.1
		c0.1,8.6,0.3,18.8,0.3,27.6h-0.8c-2.3,0-2.3,1-2.3,2.6c0,1.9,0,2.4,1.9,2.4h0.5l4.3-0.1h2.3c2.1,0,2.8-0.3,2.8-2.6v-1.3
		c-0.1-0.6-0.6-1-1.3-1.1H146c-0.1-10-0.3-18.4-0.3-28.8l9.3,22.1c0.1,0.3,0.5,0.9,1.2,0.9c0.8,0,1.4-0.4,1.5-0.8
		c3-7.2,6.5-16.2,9-22.4c-0.1,10.7-0.6,18.1-0.6,29h-0.9c-2.7,0-2.3,1.7-2.3,2.6c0,1.8,0,2.3,1.9,2.3h7.4c-0.1,0-0.3-0.1-0.3-0.1
		c0.2,0,0.9-0.1,1.5-0.1c1.4,0,1.4-1.7,1.4-3.7c0-0.7-0.5-1.1-1.3-1.2h-1.7v-4.2c0-2.1,0-4,0.1-6.3V52.7c0-2.9,0.2-6,0.2-9.3v-1.3
		l0.9-0.1c2.8,0,2.8-0.6,2.8-3.4c0-0.7-0.5-1.1-1.3-1.2h-5.9c-0.7,0-1-0.1-1.6,1.3l-11,25.8c-2.6-6.1-8.4-19.5-10.9-25.8
		c-0.6-1.3-0.9-1.3-1.5-1.3h-5c-2.7,0-2.3,1.8-2.3,2.5c0,1.6,0.1,2.1,1.9,2.1H139.9z"/>
	<path class="st1" d="M180.6,62.3h0.7c0,1.8,0.1,4.1,0.1,5.4v6.9c0,7.4,3.5,12,10.6,12c9.3,0,9.8-9.2,9.8-13.8V62.2
		c2.4,0,2.4-0.6,2.4-3c0-0.7-0.4-1-1.2-1.1h-7.5c-2.5,0-2.1,1.4-2.1,2.1c0,1.6,0.1,2.1,1.8,2.1h1.7c0,4-0.1,9.7-0.1,11.5
		c0,3.5-0.3,8.1-4.4,8.1c-5,0-5.7-6.1-5.7-7.6c0-2.6,0.1-5.5,0.1-8.7c0-1.1-0.1-2.2-0.1-3.4h0.2c2.5,0,2.6-0.6,2.6-3
		c0-0.7-0.4-1-1.2-1.1h-7.5c-2.5,0-2.1,1.4-2.1,2.1C178.8,61.8,178.9,62.3,180.6,62.3z"/>
	<path class="st1" d="M217.1,86.3c3.6,0,5.2-0.6,7.3-3.6l-0.1,1.6c0,0.8,0.5,1.7,2.3,1.7c0.3,0,0.6,0,1-0.1h3c1.3,0,1.3-1.6,1.3-3.2
		c0-0.6-0.5-1-1.2-1h-1.3c-0.1-3.8-0.1-7.4-0.2-11.7l-0.2-14c0-1.1-0.1-2.2-0.1-3.3c0-2.5,0.1-4.9,0.1-7.4c0-2.9-0.2-4.9-0.2-6.9
		c0-0.6-0.5-1-1.2-1h-7.2c-2.5,0-2,1.7-2,2.4c0,1.5,0,1.9,1.6,1.9h3.5c0,3.3,0.3,7,0.3,10.2v3.2c0,1.6,0.2,3.7,0.2,5.2
		c-0.6-1-2.6-3.2-5.9-3.2c-7.7,0-10.1,8.6-10.1,14.8C207.7,78.1,210.1,86.3,217.1,86.3z M219.1,61.8c2.2,0,3.7,1.4,4.4,2.3
		c0,3.1,0.1,10.8,0.1,13.9c-0.6,1.4-2.1,4-5.2,4c-4.6,0-5.8-5-5.8-9.9C212.6,67.3,214.9,61.8,219.1,61.8z"/>
	<path class="st1" d="M258.4,82.2c0-0.6-0.5-1-1.2-1l-2.8-0.1V67.5c0-6-1.8-10.3-9.1-10.3c-2.8,0-7.3,1-9.9,4.6
		c-0.1,0.1-0.2,0.3-0.2,0.6c0,1.2,1.9,3,2.6,3c0.1,0,0.3-0.1,0.4-0.2c1.2-1.3,4.3-3.1,6.8-3.1c2.8,0,3.9,1.3,3.9,4v2.5h-2.9
		c-7.2,0.3-11.4,4.2-11.4,10c0,5,4.6,8,9,8c5.3,0,7.5-2.6,7.7-2.8c0,0.8,0.5,2,1.9,1.9l2.6-0.1C258.4,85.5,258.4,84.8,258.4,82.2z
		 M243.4,81.4c-2.1,0-4-0.8-4-3.5c0-4.8,4-5.2,6.6-5.2h3.2c0,1.8,0.2,4.1,0.3,6C249.7,79.2,247.8,81.4,243.4,81.4z"/>
	<path class="st1" d="M269.4,86.3c5.2,0,8-3.5,8-7.6c-0.2-10.1-8.6-7.9-10.5-12.8c-0.1-0.3-0.1-0.6-0.1-0.9c0-1.8,1.9-3.6,5.5-3.6
		l0.1,2.3c0.1,2.6,0.5,2.6,3,2.6c0.7,0,1-0.4,1.1-1.2v-6.1c0-2.6-1.9-2.1-2.5-2.1h-0.2c-5.9,0-12.2,2.1-12.2,8.7
		c0,6.7,10.4,6.4,10.4,12.5c0,3-2.1,3.7-4.2,3.7c-2.7,0-4.1-1.2-5.7-1.2c-1.2,0-1.7,1.3-1.7,2.3C260.4,82.6,260.7,86.3,269.4,86.3z"
		/>
	<path class="st0" d="M184.5,95.5h-7.3c-0.9,0-1.2-0.2-2,1.6L161.6,129c-3.2-7.5-10.3-24.1-13.5-31.9c-0.7-1.6-1.1-1.6-1.9-1.6H140
		c-3.3,0-2.8,2.2-2.8,3.1c0,2,0.1,2.6,2.4,2.6h1.9c0.1,0.6,0.2,1.2,0.2,1.6l0.2,5.1c0,1.3,0.1,2.6,0.2,3.8c0,0.9-0.1,1.7-0.1,2.6
		c0.1,10.7,0.3,23.3,0.4,34.2h-0.9c-2.9,0-2.8,1.3-2.8,3.2c0,2.3,0,3,2.4,3h0.6l5.4-0.1h2.9c2.6,0,3.5-0.3,3.5-3.2v-1.6
		c-0.1-0.8-0.7-1.3-1.6-1.4H149c-0.1-12.4-0.3-22.8-0.4-35.6l11.5,27.3c0.2,0.4,0.6,1.1,1.5,1.1c1,0,1.7-0.5,1.9-0.9
		c3.8-8.9,8-20.1,11.2-27.8c-0.2,13.2-0.8,22.4-0.8,35.9h-1.1c-3.3,0-2.8,2.1-2.8,3.2c0,2.2,0,2.9,2.4,2.9h9.1
		c-0.2,0-0.3-0.1-0.4-0.1c0.3,0,1.1-0.1,1.9-0.1c1.8,0,1.8-2.1,1.8-4.5c0-0.9-0.6-1.4-1.6-1.5h-2.1v-5.2c0-2.6,0-5,0.2-7.8v-21.2
		c0-3.6,0.3-7.4,0.3-11.5v-1.6l1.1-0.1c3.5,0,3.5-0.8,3.5-4.2C186.1,96.1,185.5,95.6,184.5,95.5z"/>
	<path class="st0" d="M204,119.5c-9.1,0-13.6,8.5-13.6,18.3c0,7.1,2.6,18.3,13.8,18.3c12.6-0.2,13.2-14.7,13.2-19.1
		C216.8,129.6,214.2,119.5,204,119.5z M204.2,149.9c-6.5,0-7.8-10-7.8-12.1c0-5,1.7-12.1,7.9-12.1c5.9,0,6.8,9.6,6.8,11.5
		C211.2,141.6,210.6,149.9,204.2,149.9z"/>
	<path class="st0" d="M251.4,149.3h-1.6v-5c0-1.3,0.1-2.4,0.1-3.7v-3.1c0-1.5,0.1-2.8,0.1-5.2c0-5.1-0.8-12.7-10.2-12.7
		c-5.6,0-8.5,3-9.3,7c0-0.6,0.2-2.2,0.2-3.7c0-2.5-0.6-2.6-2.1-2.6c-0.9,0-1.6,0.1-2.1,0.1h-1.7c-3.1,0-2.5,2.1-2.5,3
		c0,1.9,0,2.4,2,2.4h0.8c0,2.7,0.3,6.2,0.3,9.1v1.2c0,1-0.1,2-0.1,3c0,2.1,0.1,6,0.2,9.9h-1c-3.1,0-2.5,2.1-2.5,3c0,1.9,0,2.4,2,2.4
		h0.6l8.8-0.1c1.6,0,1.6-2,1.6-4c0-0.8-0.6-1.2-1.5-1.3h-2l0.3-15.4c0.4-2.4,2.5-7.6,7.3-7.6c2.6,0,4.9,2.1,5.2,9.7
		c0,3.2-0.2,9.7-0.3,13.6h-1.4c-3.1,0-2.5,2.1-2.5,3c0,1.9,0,2.4,2,2.4h0.6l8.8-0.1c1.6,0,1.6-2,1.6-4
		C252.9,149.8,252.3,149.4,251.4,149.3z"/>
	<path class="st0" d="M278.6,147.4c-2.4,0-1.6,3.2-6.7,3.2c-2.1-0.2-3.9-2.4-3.9-5.3v-18.5h8.4c1.3,0,1.8-0.7,1.8-1.5
		c0-3.4-0.3-4-2.9-4c-2.7,0-5-0.1-7.4-0.1c0.1-3,0.2-6.1,0.2-9.3c0-2-0.8-2.8-1.8-2.8c-0.9,0-4.8,0.5-4.8,1.7
		c-0.2,3-0.1,2.7-0.1,10.4h-2c-2.6,0-3.1,0.3-3.1,3.1c0,2,1.1,2.2,2.6,2.2h0.9c0.5,0,1,0.1,1.5,0.1l-0.1,16.2
		c-0.1,8.1,3,12.7,9.2,13c7.1,0,9.7-4.3,9.7-5.8C280.3,148.9,279.4,147.4,278.6,147.4z"/>
	<path class="st0" d="M298.1,119.4c-9.1,0-13.5,10.3-13.5,17.5c0,6.2,1.5,19.3,15.6,19.3c8.6,0,10.2-4.5,10.2-4.8
		c0-1.5-1.3-3.7-2.5-3.7c-1.7,0-0.9,3.2-7.7,3.2c-6.6,0-9-6.7-9-11.5c3.2,0,6.3-0.2,9.5-0.2c1.6,0,3.2,0.1,5,0.2
		c0.3,0,1.2,0.2,2.3,0.2c4.4,0,3.2-2.9,3.5-5.6C311.4,125.5,307,119.4,298.1,119.4z M291.2,135c0.3-4.6,2.6-11.1,7.8-11.1
		c5.1,0,6.8,6.1,6.9,11.1H291.2z"/>
	<path class="st0" d="M345.4,149.3h-1.6v-5c0-1.3,0.1-2.4,0.1-3.7v-3.1c0-1.5,0.1-2.8,0.1-5.2c0-5.1-0.8-12.7-10.2-12.7
		c-5.6,0-8.5,3-9.3,7c0-0.6,0.2-2.2,0.2-3.7c0-2.5-0.6-2.6-2.1-2.6c-0.9,0-1.6,0.1-2.1,0.1h-1.7c-3.1,0-2.5,2.1-2.5,3
		c0,1.9,0,2.4,2,2.4h0.8c0,2.7,0.3,6.2,0.3,9.1v1.2c0,1-0.1,2-0.1,3c0,2.1,0.1,6,0.2,9.9h-1c-3.1,0-2.5,2.1-2.5,3c0,1.9,0,2.4,2,2.4
		h0.6l8.8-0.1c1.6,0,1.6-2,1.6-4c0-0.8-0.6-1.2-1.5-1.3h-2l0.3-15.4c0.4-2.4,2.5-7.6,7.3-7.6c2.6,0,4.9,2.1,5.2,9.7
		c0,3.2-0.2,9.7-0.3,13.6h-1.4c-3.1,0-2.5,2.1-2.5,3c0,1.9,0,2.4,2,2.4h0.6l8.8-0.1c1.6,0,1.6-2,1.6-4
		C347,149.8,346.4,149.4,345.4,149.3z"/>
	<path class="st0" d="M364.7,119.4c-9.1,0-13.5,10.3-13.5,17.5c0,6.2,1.5,19.3,15.6,19.3c8.6,0,10.2-4.5,10.2-4.8
		c0-1.5-1.3-3.7-2.5-3.7c-1.7,0-0.9,3.2-7.7,3.2c-6.6,0-9-6.7-9-11.5c3.2,0,6.3-0.2,9.5-0.2c1.6,0,3.2,0.1,5,0.2
		c0.3,0,1.2,0.2,2.3,0.2c4.4,0,3.2-2.9,3.5-5.6C378.1,125.5,373.7,119.4,364.7,119.4z M357.9,135c0.3-4.6,2.6-11.1,7.8-11.1
		c5.1,0,6.8,6.1,6.9,11.1H357.9z"/>
	<path class="st0" d="M411,119.7l-10.1,0.2l-5.4,0.3c-9.9,0.5-12.6,7.5-12.6,12.5c0,4.2,3.4,7.8,7.9,9.1c-1.4,0-4.9,1-4.9,3.8
		c0,2.7,3,3.3,4.3,3.8c-0.1,0-9.5,2.1-9.5,11.5c0,8.7,7.9,12.6,15.6,12.6c8.6,0,17.2-5.2,17.2-14c0-8.2-6.3-12-15.4-12.5
		c-2.2-0.1-4.4-0.1-4.4-2.1c0-1.2,1.9-2,5.4-2c7.2,0,13.2-3.1,13.3-10.8c-0.2-6.3-4.1-7.6-4.5-7.8h6.4c1.4-0.2,1.2-1.8,1.2-2.6
		C415.4,119.2,413.1,119.7,411,119.7z M396.6,152.4c5.6,0,9.9,2.5,9.9,8.1c0,3.4-2.8,7.6-11.1,7.6c-7.6,0-8.6-5.6-8.6-7.5
		C386.8,153,394.9,152.4,396.6,152.4z M396.9,137.4h-2.2c-3.1-0.2-5.6-2.6-5.6-5.6c0-2.9,1.6-6.8,7.2-6.8h1.5c5.1,0,8,2.1,8,6.8
		C405.8,135.6,403.2,137.4,396.9,137.4z"/>
	<path class="st0" d="M438.1,120.3c-6.6,0-10.9,6.7-11,6.7c-0.3-2.8,0.4-6.8-2.1-6.8h-0.3c-0.2,0-0.3-0.1-0.5-0.1H420
		c-3.1,0-2.6,1.7-2.6,2.6c0,2,0.1,2.6,2.2,2.6h0.6c0.1,3.9,0.3,8.9,0.3,10.3l0.2,13.6h-0.9c-3.1,0-2.6,1.7-2.6,2.7
		c0,2,0.1,2.6,2.2,2.6h0.5l7.4-0.1c3.1,0,3.2-0.7,3.2-3.8c0-0.9-0.5-1.3-1.5-1.4h-2v-15.6c-0.3-0.9,4.7-6.8,10.5-6.8
		c2.2,0,3,1.1,3.8,1.1c1.4,0,1.5-2.5,1.6-3.4v-0.9C443.1,122,442.6,120.3,438.1,120.3z"/>
	<path class="st0" d="M459.3,119.5c-9.1,0-13.6,8.5-13.6,18.3c0,7.1,2.6,18.3,13.8,18.3c12.6-0.2,13.2-14.7,13.2-19.1
		C472.1,129.6,469.5,119.5,459.3,119.5z M459.5,149.9c-6.5,0-7.8-10-7.8-12.1c0-5,1.7-12.1,7.9-12.1c5.9,0,6.8,9.6,6.8,11.5
		C466.5,141.6,465.8,149.9,459.5,149.9z"/>
</g>
</svg>
